# xmcd
#
# Track frame offsets: 
#        150
#        15838
#        29116
#        42540
#        55462
#        68795
#        84155
#        99892
#        117635
#        128955
#        147262
#        165263
#        176423
#        191846
#        211163
#        229459
#        247153
#        268281
#        286665
#        304018
#
# Disc length: 4291 seconds
#
# Revision: 0
# Processed by: cddbd v1.5.2PL0 Copyright (c) Steve Scherf et al.
# Submitted via: ExactAudioCopy v0.99pb4
#
DISCID=2210c114
DTITLE=Various Artist - Д.Тухманов - Семейный альбом
DYEAR=2007
DGENRE=Retro
TTITLE0=Ободзинский В. - Эти глаза напротив
TTITLE1=Кристалинская М. - Видно, так устроен свет
TTITLE2=Бродская Н. - Капитан
TTITLE3=Резанова С. - Белый танец
TTITLE4=Ухналев О. - И не то, чтобы да
TTITLE5=Мулерман В. - Ты назови её Мариной
TTITLE6=Ободзинский В. - Восточная песня
TTITLE7=Бродская Н. - Только ты молчи
TTITLE8=Макаров В. - Последняя электричка
TTITLE9=Пьеха Э. - Семейный альбом
TTITLE10=Ободзинский В. - Что нам остаётся от любви
TTITLE11=Ухналев О. - 23 Часа Полета
TTITLE12=Ободзинский В. - Вечная весна
TTITLE13=Бродская Н. - Сан Саныч
TTITLE14=Мондрус Л. - Опять зима
TTITLE15=Ободзинский В. - Любимая, спи
TTITLE16=Лукач М. - Феодосия
TTITLE17=Кристалинская М. - Летний снег
TTITLE18=Лещенко Л. - Не могу забыть
TTITLE19=Лещенко Л. - День Победы
EXTD=
EXTT0=
EXTT1=
EXTT2=
EXTT3=
EXTT4=
EXTT5=
EXTT6=
EXTT7=
EXTT8=
EXTT9=
EXTT10=
EXTT11=
EXTT12=
EXTT13=
EXTT14=
EXTT15=
EXTT16=
EXTT17=
EXTT18=
EXTT19=
PLAYORDER=
